<svg width="12" height="12" viewBox="0 0 12 12" fill="none" xmlns="http://www.w3.org/2000/svg">
<path d="M5.99996 4.39335C6.4602 4.39335 6.83329 4.02026 6.83329 3.56002C6.83329 3.09978 6.4602 2.72668 5.99996 2.72668C5.53972 2.72668 5.16663 3.09978 5.16663 3.56002C5.16663 4.02026 5.53972 4.39335 5.99996 4.39335Z" fill="#5C6CFA"/>
<path d="M6.69331 5.84324V8.5899C6.69331 8.77379 6.62026 8.95014 6.49023 9.08016C6.36021 9.21019 6.18386 9.28324 5.99997 9.28324C5.81609 9.28324 5.63974 9.21019 5.50971 9.08016C5.37969 8.95014 5.30664 8.77379 5.30664 8.5899V5.84324C5.30664 5.65935 5.37969 5.483 5.50971 5.35298C5.63974 5.22295 5.81609 5.1499 5.99997 5.1499C6.18386 5.1499 6.36021 5.22295 6.49023 5.35298C6.62026 5.483 6.69331 5.65935 6.69331 5.84324Z" fill="#5C6CFA"/>
<path d="M6 0C2.6864 0 0 2.6864 0 6C0 9.3136 2.6864 12 6 12C9.3136 12 12 9.3136 12 6C12 2.6864 9.3136 0 6 0ZM9.48827 9.48827C9.03161 9.95278 8.48747 10.3223 7.88727 10.5754C7.28707 10.8285 6.64268 10.9603 5.99129 10.963C5.3399 10.9658 4.69441 10.8396 4.09207 10.5916C3.48973 10.3436 2.94247 9.97874 2.48187 9.51814C2.02126 9.05753 1.65643 8.51027 1.40844 7.90793C1.16044 7.30559 1.03419 6.6601 1.03697 6.00871C1.03975 5.35732 1.1715 4.71293 1.42462 4.11273C1.67774 3.51253 2.04722 2.96839 2.51173 2.51173C2.96839 2.04722 3.51253 1.67774 4.11273 1.42462C4.71293 1.1715 5.35732 1.03975 6.00871 1.03697C6.6601 1.03419 7.30559 1.16044 7.90793 1.40844C8.51027 1.65643 9.05753 2.02126 9.51814 2.48187C9.97874 2.94247 10.3436 3.48973 10.5916 4.09207C10.8396 4.69441 10.9658 5.3399 10.963 5.99129C10.9603 6.64268 10.8285 7.28707 10.5754 7.88727C10.3223 8.48747 9.95278 9.03161 9.48827 9.48827Z" fill="#5C6CFA"/>
<path d="M6 0C2.6864 0 0 2.6864 0 6C0 9.3136 2.6864 12 6 12C9.3136 12 12 9.3136 12 6C12 2.6864 9.3136 0 6 0ZM9.48827 9.48827C9.03161 9.95278 8.48747 10.3223 7.88727 10.5754C7.28707 10.8285 6.64268 10.9603 5.99129 10.963C5.3399 10.9658 4.69441 10.8396 4.09207 10.5916C3.48973 10.3436 2.94247 9.97874 2.48187 9.51814C2.02126 9.05753 1.65643 8.51027 1.40844 7.90793C1.16044 7.30559 1.03419 6.6601 1.03697 6.00871C1.03975 5.35732 1.1715 4.71293 1.42462 4.11273C1.67774 3.51253 2.04722 2.96839 2.51173 2.51173C2.96839 2.04722 3.51253 1.67774 4.11273 1.42462C4.71293 1.1715 5.35732 1.03975 6.00871 1.03697C6.6601 1.03419 7.30559 1.16044 7.90793 1.40844C8.51027 1.65643 9.05753 2.02126 9.51814 2.48187C9.97874 2.94247 10.3436 3.48973 10.5916 4.09207C10.8396 4.69441 10.9658 5.3399 10.963 5.99129C10.9603 6.64268 10.8285 7.28707 10.5754 7.88727C10.3223 8.48747 9.95278 9.03161 9.48827 9.48827Z" fill="#5C6CFA"/>
</svg>
